<svg width="37" height="56" viewBox="0 0 37 56" fill="none" xmlns="http://www.w3.org/2000/svg">
<g clip-path="url(#clip0_153_58)">
<path d="M18.3428 27.5704C18.3428 22.5111 22.4444 18.3886 27.5245 18.3886C32.5839 18.3886 36.7063 22.4903 36.7063 27.5704C36.7063 32.6297 32.6047 36.7522 27.5245 36.7522C22.4652 36.7522 18.3428 32.6297 18.3428 27.5704Z" fill="#1ABCFE"/>
<path d="M0 45.9131C0 40.8538 4.1016 36.7314 9.18176 36.7314H18.3635V45.9131C18.3635 50.9725 14.2619 55.0949 9.18176 55.0949C4.1016 55.0949 0 50.9933 0 45.9131Z" fill="#0ACF83"/>
<path d="M18.3428 0.0459439V18.3886H27.5245C32.5839 18.3886 36.7063 14.287 36.7063 9.20688C36.7063 4.14755 32.6047 0.0251236 27.5245 0.0251236H18.3428V0.0459439Z" fill="#FF7262"/>
<path d="M0 9.2277C0 14.287 4.1016 18.4095 9.18176 18.4095H18.3635V0.0459442H9.18176C4.1016 0.0459442 0 4.14755 0 9.2277Z" fill="#F24E1E"/>
<path d="M0 27.5704C0 32.6297 4.1016 36.7522 9.18176 36.7522H18.3635V18.3886H9.18176C4.1016 18.3886 0 22.5111 0 27.5704Z" fill="#A259FF"/>
</g>
<defs>
<clipPath id="clip0_153_58">
<rect width="37" height="56" fill="white"/>
</clipPath>
</defs>
</svg>
